# File created by Blade
# Date/Time:  Wed Jan 21 18:40:08 2015
# Frame Rate: 120.000 fps
#------------------------------------------------------
:FULLY-SPECIFIED
:DEGREES
4008
root 2.025104 28.770899 -9.846330 81.497439 -2.336934 6.965966
RightUpLeg -95.097616 -35.288524 5.033071
RightLeg 5.159457 -0.000000 -0.000000
RightFoot -1.845977 -4.772946 45.290294
RightToeBase 18.605869 -0.000000 -0.000000
LeftUpLeg -91.368865 18.501406 -17.573005
LeftLeg -4.070267 -0.000000 0.000000
LeftFoot 7.341552 4.256528 -18.134419
LeftToeBase 8.867576 -0.000000 -0.000000
Spine -38.353927 -1.967189 1.755789
RightShoulder -11.244592 18.832180 -28.292607
RightArm -4.158029 -20.376353 91.082222
RightForeArm 7.742483 -0.000000 30.905829
RightHand 10.587477 -0.000000 -12.324318
RightHandThumb1 -24.326973 -0.000000 -32.862282
LeftShoulder -1.371537 -3.723144 26.192906
LeftArm 30.942313 34.464587 -83.076289
LeftForeArm 14.627862 -0.000000 29.712292
LeftHand -15.811857 0.000000 2.072479
LeftHandThumb1 -26.253704 0.000000 33.147579
Head -28.991474 2.716225 16.382343
4009
root 2.021943 28.770011 -9.847141 81.488632 -2.357642 6.934643
RightUpLeg -95.152938 -35.248742 5.068321
RightLeg 5.223777 -0.000000 -0.000000
RightFoot -1.815561 -4.739645 45.338666
RightToeBase 18.534459 -0.000000 -0.000000
LeftUpLeg -91.365382 18.549498 -17.604470
LeftLeg -4.091555 -0.000000 0.000000
LeftFoot 7.359442 4.216474 -18.145401
LeftToeBase 8.856528 -0.000000 -0.000000
Spine -38.363774 -1.985705 1.798116
RightShoulder -11.226192 18.820039 -28.281589
RightArm -4.126780 -20.350475 91.087715
RightForeArm 7.688092 0.000000 30.954696
RightHand 10.638023 0.000000 -12.567160
RightHandThumb1 -24.326973 -0.000000 -32.862282
LeftShoulder -1.373793 -3.728155 26.206910
LeftArm 30.941217 34.498635 -83.124940
LeftForeArm 14.637159 -0.000000 29.759980
LeftHand -15.797680 0.000000 2.077573
LeftHandThumb1 -26.253704 0.000000 33.147579
Head -28.968896 2.673468 16.474599
4010
root 2.018086 28.769434 -9.848905 81.482667 -2.368815 6.901722
RightUpLeg -95.192225 -35.208336 5.075790
RightLeg 5.295461 -0.000000 -0.000000
RightFoot -1.809255 -4.719820 45.337055
RightToeBase 18.501431 -0.000000 -0.000000
LeftUpLeg -91.369145 18.593797 -17.631422
LeftLeg -4.114168 -0.000000 0.000000
LeftFoot 7.382526 4.204158 -18.165102
LeftToeBase 8.850316 -0.000000 -0.000000
Spine -38.372450 -2.003127 1.845733
RightShoulder -11.214329 18.816555 -28.269571
RightArm -4.108663 -20.340022 91.097700
RightForeArm 7.693129 0.000000 30.999031
RightHand 10.533157 -0.000000 -12.380965
RightHandThumb1 -24.326973 -0.000000 -32.862282
LeftShoulder -1.367533 -3.733812 26.222345
LeftArm 30.983486 34.585885 -83.110558
LeftForeArm 14.605955 -0.000000 29.807093
LeftHand -15.846802 0.000000 2.100621
LeftHandThumb1 -26.253704 0.000000 33.147579
Head -28.946798 2.609742 16.588051
4011
root 2.014890 28.768814 -9.849952 81.468785 -2.390896 6.872302
RightUpLeg -95.210192 -35.172035 5.058927
RightLeg 5.353795 -0.000000 -0.000000
RightFoot -1.819231 -4.703076 45.400485
RightToeBase 18.547296 -0.000000 -0.000000
LeftUpLeg -91.365339 18.635813 -17.684865
LeftLeg -4.137161 -0.000000 0.000000
LeftFoot 7.401980 4.167562 -18.205638
LeftToeBase 8.850370 -0.000000 -0.000000
Spine -38.370488 -2.021561 1.881210
RightShoulder -11.212063 18.787993 -28.251446
RightArm -4.055242 -20.352562 91.092676
RightForeArm 7.669178 -0.000000 31.012934
RightHand 10.603669 0.000000 -12.304717
RightHandThumb1 -24.326973 -0.000000 -32.862282
LeftShoulder -1.354011 -3.723634 26.233437
LeftArm 31.007746 34.613139 -83.133838
LeftForeArm 14.641198 -0.000000 29.845065
LeftHand -15.806907 -0.000000 2.071606
LeftHandThumb1 -26.253704 0.000000 33.147579
Head -28.929090 2.548632 16.701095
4012
root 2.012179 28.768140 -9.851885 81.456300 -2.410709 6.850574
RightUpLeg -95.246063 -35.142777 5.057550
RightLeg 5.423836 -0.000000 -0.000000
RightFoot -1.819687 -4.683177 45.371641
RightToeBase 18.507673 -0.000000 -0.000000
LeftUpLeg -91.358728 18.668096 -17.735627
LeftLeg -4.168580 -0.000000 0.000000
LeftFoot 7.429251 4.150429 -18.199625
LeftToeBase 8.860265 -0.000000 -0.000000
Spine -38.367990 -2.037228 1.914909
RightShoulder -11.227651 18.791972 -28.254954
RightArm -4.035873 -20.342862 91.121415
RightForeArm 7.675313 -0.000000 31.008782
RightHand 10.546433 -0.000000 -12.305806
RightHandThumb1 -24.326973 -0.000000 -32.862282
LeftShoulder -1.332420 -3.730625 26.237344
LeftArm 31.031977 34.638701 -83.159146
LeftForeArm 14.651944 -0.000000 29.871871
LeftHand -15.747944 -0.000000 2.031856
LeftHandThumb1 -26.253704 0.000000 33.147579
Head -28.909848 2.497324 16.796808
